<svg width="14" height="14" viewBox="0 0 14 14" fill="none" xmlns="http://www.w3.org/2000/svg">
<path fill-rule="evenodd" clip-rule="evenodd" d="M12.4171 6.37516H7.62541V1.5835C7.62541 1.2385 7.34541 0.958496 7.00041 0.958496C6.65541 0.958496 6.37541 1.2385 6.37541 1.5835V6.37516H1.58374C1.23874 6.37516 0.95874 6.65516 0.95874 7.00016C0.95874 7.34516 1.23874 7.62516 1.58374 7.62516H6.37541V12.4168C6.37541 12.7618 6.65541 13.0418 7.00041 13.0418C7.34541 13.0418 7.62541 12.7618 7.62541 12.4168V7.62516H12.4171C12.7621 7.62516 13.0421 7.34516 13.0421 7.00016C13.0421 6.65516 12.7621 6.37516 12.4171 6.37516Z" fill="currentColor"/>
</svg>
