<svg width="22" height="22" viewBox="0 0 22 22" fill="none" xmlns="http://www.w3.org/2000/svg">
<path fill-rule="evenodd" clip-rule="evenodd" d="M0 11C0 4.9 4.9 0 11 0C17.1 0 22 4.9 22 11C22 17.1 17.1 22 11 22C4.9 22 0 17.1 0 11ZM1.5 11C1.5 16.25 5.75 20.5 11 20.5C16.25 20.5 20.5 16.25 20.5 11C20.5 5.75 16.25 1.5 11 1.5C5.75 1.5 1.5 5.75 1.5 11ZM12 6V12.5H10V6H12ZM11 16.5C11.6904 16.5 12.25 15.9404 12.25 15.25C12.25 14.5596 11.6904 14 11 14C10.3096 14 9.75 14.5596 9.75 15.25C9.75 15.9404 10.3096 16.5 11 16.5Z" fill="currentColor"/>
</svg>
