<svg width="16" height="16" viewBox="0 0 16 16" fill="none" xmlns="http://www.w3.org/2000/svg">
<path fill-rule="evenodd" clip-rule="evenodd" d="M4.3236 15.8022C3.20899 15.8022 2.13034 15.3708 1.26742 14.5438C-0.422472 12.8539 -0.422472 10.1213 1.26742 8.43146L9.53708 0.161798C9.75281 -0.0539326 10.0764 -0.0539326 10.2921 0.161798C10.5079 0.377528 10.5079 0.701124 10.2921 0.916854L2.02247 9.18652C0.764045 10.4449 0.764045 12.4944 2.02247 13.7528C3.2809 15.0112 5.33034 15.0112 6.58876 13.7528L14.3551 5.98652C15.1101 5.23146 15.1101 3.97303 14.3551 3.18202C13.9955 2.82247 13.4921 2.60674 12.9528 2.60674C12.4135 2.60674 11.9461 2.82247 11.5506 3.18202L3.78427 10.9843C3.6764 11.1281 3.60449 11.3079 3.60449 11.4876C3.60449 11.6674 3.6764 11.8472 3.82022 11.991C4.10787 12.2787 4.57528 12.2787 4.82697 11.991L10.5438 6.27416C10.7596 6.05843 11.0831 6.05843 11.2989 6.27416C11.5146 6.48989 11.5146 6.81348 11.2989 7.02921L5.58202 12.782C5.25843 13.1056 4.79101 13.3213 4.3236 13.3213C3.85618 13.3213 3.38876 13.1416 3.06517 12.782C2.70562 12.4225 2.52584 11.991 2.52584 11.4876C2.52584 10.9843 2.70562 10.5888 3.02921 10.2292L10.7955 2.46292C11.982 1.2764 13.9236 1.2764 15.1101 2.46292C16.2966 3.64944 16.2966 5.59101 15.1101 6.77753L7.34382 14.5438C6.51685 15.4067 5.40225 15.8022 4.3236 15.8022Z" fill="#191919"/>
</svg>
