<svg width="22" height="23" viewBox="0 0 22 23" fill="none" xmlns="http://www.w3.org/2000/svg">
<path fill-rule="evenodd" clip-rule="evenodd" d="M17.05 2.2V0H15.4V2.2H6.6V0H4.95V2.2H0V19.25C0 21.065 1.485 22.55 3.3 22.55H18.7C20.515 22.55 22 21.065 22 19.25V2.2H17.05ZM20.35 19.25C20.35 20.185 19.635 20.9 18.7 20.9H3.29999C2.36499 20.9 1.64999 20.185 1.64999 19.25V7.15H20.35V19.25ZM7.15 12.05C7.15 12.6575 6.65751 13.15 6.05 13.15C5.44248 13.15 4.95 12.6575 4.95 12.05C4.95 11.4425 5.44248 10.95 6.05 10.95C6.65751 10.95 7.15 11.4425 7.15 12.05ZM12.1 12.05C12.1 12.6575 11.6075 13.15 11 13.15C10.3925 13.15 9.89999 12.6575 9.89999 12.05C9.89999 11.4425 10.3925 10.95 11 10.95C11.6075 10.95 12.1 11.4425 12.1 12.05ZM15.95 13.15C16.5575 13.15 17.05 12.6575 17.05 12.05C17.05 11.4425 16.5575 10.95 15.95 10.95C15.3425 10.95 14.85 11.4425 14.85 12.05C14.85 12.6575 15.3425 13.15 15.95 13.15ZM7.15 17C7.15 17.6075 6.65751 18.1 6.05 18.1C5.44248 18.1 4.95 17.6075 4.95 17C4.95 16.3925 5.44248 15.9 6.05 15.9C6.65751 15.9 7.15 16.3925 7.15 17ZM11 18.1C11.6075 18.1 12.1 17.6075 12.1 17C12.1 16.3925 11.6075 15.9 11 15.9C10.3925 15.9 9.89999 16.3925 9.89999 17C9.89999 17.6075 10.3925 18.1 11 18.1ZM17.05 17C17.05 17.6075 16.5575 18.1 15.95 18.1C15.3425 18.1 14.85 17.6075 14.85 17C14.85 16.3925 15.3425 15.9 15.95 15.9C16.5575 15.9 17.05 16.3925 17.05 17Z" fill="currentColor"/>
</svg>
