<svg width="24" height="24" viewBox="0 0 24 24" fill="none" xmlns="http://www.w3.org/2000/svg">
<path fill-rule="evenodd" clip-rule="evenodd" d="M17.3926 8.43035C17.6578 8.11214 17.6148 7.63922 17.2966 7.37405C16.9784 7.10888 16.5054 7.15187 16.2403 7.47008L10.4327 14.4391L7.21344 11.2199C6.92054 10.927 6.44567 10.927 6.15278 11.2199C5.85988 11.5128 5.85988 11.9876 6.15278 12.2805L9.94611 16.0739C9.95622 16.0842 9.96668 16.0943 9.97749 16.1042C10.0417 16.1629 10.1137 16.2084 10.1899 16.2407C10.3995 16.3298 10.6387 16.3179 10.8376 16.2114C10.9107 16.1722 10.9784 16.1202 11.0372 16.0557C11.0469 16.0451 11.0563 16.0342 11.0652 16.0232L17.3926 8.43035Z" fill="currentColor"/>
</svg>
