<svg width="16" height="16" viewBox="0 0 16 16" fill="none" xmlns="http://www.w3.org/2000/svg">
<path fill-rule="evenodd" clip-rule="evenodd" d="M9.10613 8L13.7707 3.33545C14.0764 3.0297 14.0764 2.53507 13.7707 2.22931C13.4649 1.92356 12.9693 1.92356 12.6635 2.22931L7.99896 6.89282L3.33545 2.22931C3.0297 1.92356 2.53402 1.92356 2.22931 2.22931C1.92356 2.53507 1.92356 3.0297 2.22931 3.33545L6.89282 8L2.22931 12.6635C1.92356 12.9693 1.92356 13.4649 2.22931 13.7707C2.38167 13.9241 2.58203 14.0003 2.78134 14.0003C2.98274 14.0003 3.18309 13.9241 3.33545 13.7717L7.99896 9.10718L12.6635 13.7707C12.8169 13.9241 13.0173 14.0003 13.2166 14.0003C13.418 14.0003 13.6183 13.9241 13.7707 13.7717C14.0764 13.466 14.0764 12.9703 13.7707 12.6646L9.10613 8Z" fill="currentColor"/>
</svg>
