<svg width="24" height="24" viewBox="0 0 24 24" fill="none" xmlns="http://www.w3.org/2000/svg">
<path fill-rule="evenodd" clip-rule="evenodd" d="M12 2C17.5455 2 22 6.45455 22 12C22 17.5455 17.5455 22 12 22C6.45455 22 2 17.5455 2 12C2 6.45455 6.45455 2 12 2ZM12 3.36364C7.22727 3.36364 3.36364 7.22727 3.36364 12C3.36364 16.7727 7.22727 20.6364 12 20.6364C16.7727 20.6364 20.6364 16.7727 20.6364 12C20.6364 7.22727 16.7727 3.36364 12 3.36364ZM8.31818 8.31818C8.56612 8.07025 8.92675 8.04771 9.19517 8.25056L9.27273 8.31818L12 11.0455L14.7273 8.31818C15 8.04545 15.4091 8.04545 15.6818 8.31818C15.9298 8.56612 15.9523 8.92675 15.7494 9.19517L15.6818 9.27273L12.9545 12L15.6818 14.7273C15.9545 15 15.9545 15.4091 15.6818 15.6818C15.4339 15.9298 15.0733 15.9523 14.8048 15.7494L14.7273 15.6818L12 12.9545L9.27273 15.6818C9 15.9545 8.59091 15.9545 8.31818 15.6818C8.07025 15.4339 8.04771 15.0733 8.25056 14.8048L8.31818 14.7273L11.0455 12L8.31818 9.27273C8.04545 9 8.04545 8.59091 8.31818 8.31818Z" fill="currentColor"/>
</svg>
