<svg width="18" height="18" viewBox="0 0 18 18" fill="none" xmlns="http://www.w3.org/2000/svg">
<path fill-rule="evenodd" clip-rule="evenodd" d="M0.666687 2.07496C0.666687 1.29709 1.29606 0.666504 2.07243 0.666504H8.03366C8.36639 0.666504 8.63612 0.936756 8.63612 1.27013C8.63612 1.6035 8.36639 1.87375 8.03366 1.87375H2.07243C1.96152 1.87375 1.87161 1.96384 1.87161 2.07496V15.9247C1.87161 16.0358 1.96152 16.1259 2.07243 16.1259H15.9276C16.0385 16.1259 16.1284 16.0358 16.1284 15.9247V9.96605C16.1284 9.63268 16.3982 9.36243 16.7309 9.36243C17.0636 9.36243 17.3334 9.63268 17.3334 9.96605V15.9247C17.3334 16.7026 16.704 17.3332 15.9276 17.3332H2.07243C1.29606 17.3332 0.666687 16.7026 0.666687 15.9247V2.07496Z" fill="currentColor"/>
<path fill-rule="evenodd" clip-rule="evenodd" d="M11.866 0.666504C11.5333 0.666504 11.2635 0.936756 11.2635 1.27013C11.2635 1.6035 11.5333 1.87375 11.866 1.87375H15.2407L5.64176 11.4712C5.40624 11.7067 5.40585 12.0889 5.64088 12.3249C5.87591 12.5608 6.25736 12.5612 6.49288 12.3258L16.0953 2.72475V6.1012C16.0953 6.43457 16.3651 6.70482 16.6978 6.70482C17.0305 6.70482 17.3003 6.43457 17.3003 6.1012V2.07496C17.3003 1.29709 16.6709 0.666504 15.8945 0.666504H11.866Z" fill="currentColor"/>
</svg>
