<svg width="14" height="14" viewBox="0 0 14 14" fill="none" xmlns="http://www.w3.org/2000/svg">
<path fill-rule="evenodd" clip-rule="evenodd" d="M10.3333 1.89974C10.3333 2.91226 9.51253 3.73307 8.50001 3.73307C7.48749 3.73307 6.66668 2.91226 6.66668 1.89974C6.66668 0.887218 7.48749 0.0664062 8.50001 0.0664062C9.51253 0.0664062 10.3333 0.887218 10.3333 1.89974ZM5.71333 1.39978C5.68333 1.56311 5.66667 1.72978 5.66667 1.89978C5.66667 2.06978 5.68333 2.23645 5.71333 2.39978H0V1.39978H5.71333ZM11.3333 1.89978C11.3333 1.72978 11.3166 1.56311 11.2866 1.39978H13.3333V2.39978H11.2866C11.3166 2.23645 11.3333 2.06978 11.3333 1.89978ZM4.61987 7.06641C4.64987 6.90307 4.66654 6.73641 4.66654 6.56641C4.66654 6.39641 4.64987 6.22974 4.61987 6.06641H13.3332V7.06641H4.61987ZM3.66667 6.56637C3.66667 7.57889 2.84586 8.3997 1.83333 8.3997C0.820811 8.3997 0 7.57889 0 6.56637C0 5.55384 0.820811 4.73303 1.83333 4.73303C2.84586 4.73303 3.66667 5.55384 3.66667 6.56637ZM0 11.733V10.733H4.04667C4.01667 10.8964 4 11.063 4 11.233C4 11.403 4.01667 11.5697 4.04667 11.733H0ZM9.66654 11.233C9.66654 11.403 9.64987 11.5697 9.61987 11.733H13.3332V10.733H9.61987C9.64987 10.8964 9.66654 11.063 9.66654 11.233ZM6.83333 13.0664C7.84585 13.0664 8.66667 12.2456 8.66667 11.2331C8.66667 10.2206 7.84585 9.39978 6.83333 9.39978C5.82081 9.39978 5 10.2206 5 11.2331C5 12.2456 5.82081 13.0664 6.83333 13.0664Z" fill="currentColor"/>
</svg>
