<svg width="16" height="16" viewBox="0 0 16 16" fill="none" xmlns="http://www.w3.org/2000/svg">
<path fill-rule="evenodd" clip-rule="evenodd" d="M11.3 3.69231C11.3 4.62694 10.5612 5.38462 9.64996 5.38462C8.73869 5.38462 7.99996 4.62694 7.99996 3.69231C7.99996 2.75767 8.73869 2 9.64996 2C10.5612 2 11.3 2.75767 11.3 3.69231ZM7.142 3.23092C7.115 3.38169 7.1 3.53553 7.1 3.69246C7.1 3.84938 7.115 4.00323 7.142 4.154H2V3.23092H7.142ZM12.2 3.69246C12.2 3.53553 12.185 3.38169 12.158 3.23092H14V4.154H12.158C12.185 4.00323 12.2 3.84938 12.2 3.69246ZM6.15784 8.46154C6.18484 8.31077 6.19984 8.15692 6.19984 8C6.19984 7.84308 6.18484 7.68923 6.15784 7.53846H13.9998V8.46154H6.15784ZM5.3 7.99985C5.3 8.93448 4.56127 9.69216 3.65 9.69216C2.73873 9.69216 2 8.93448 2 7.99985C2 7.06521 2.73873 6.30754 3.65 6.30754C4.56127 6.30754 5.3 7.06521 5.3 7.99985ZM2 12.7691V11.846H5.642C5.615 11.9968 5.6 12.1506 5.6 12.3075C5.6 12.4645 5.615 12.6183 5.642 12.7691H2ZM10.6998 12.3075C10.6998 12.4645 10.6848 12.6183 10.6578 12.7691H13.9998V11.846H10.6578C10.6848 11.9968 10.6998 12.1506 10.6998 12.3075ZM8.15 14.0002C9.06127 14.0002 9.8 13.2425 9.8 12.3078C9.8 11.3732 9.06127 10.6155 8.15 10.6155C7.23873 10.6155 6.5 11.3732 6.5 12.3078C6.5 13.2425 7.23873 14.0002 8.15 14.0002Z" fill="#191919"/>
</svg>
