<svg width="24" height="24" viewBox="0 0 24 24" fill="none" xmlns="http://www.w3.org/2000/svg">
    <path fill-rule="evenodd" clip-rule="evenodd"
        d="M1 12C1 5.925 5.925 1 12 1C18.075 1 23 5.925 23 12C23 18.075 18.075 23 12 23C5.925 23 1 18.075 1 12ZM2.5 12C2.5 17.2385 6.7615 21.5 12 21.5C17.2385 21.5 21.5 17.2385 21.5 12C21.5 6.7615 17.2385 2.5 12 2.5C6.7615 2.5 2.5 6.7615 2.5 12ZM13.25 16.25C13.25 16.9404 12.6904 17.5 12 17.5C11.3096 17.5 10.75 16.9404 10.75 16.25C10.75 15.5596 11.3096 15 12 15C12.6904 15 13.25 15.5596 13.25 16.25ZM9.1205 9.819C9.205 8.4075 10.1465 7.02 12.101 7.02C13.7965 7.02 15.027 8.143 15.0265 9.6895C15.0265 10.8581 14.3499 11.4656 13.7526 12.002L13.752 12.0025C13.2705 12.4345 12.8165 12.842 12.8165 13.4635V13.796H11.0695V13.193C11.0695 12.1662 11.6807 11.6691 12.2718 11.1884L12.273 11.1875C12.76 10.7925 13.2195 10.4195 13.2195 9.795C13.2195 9.0955 12.791 8.661 12.101 8.661C11.445 8.661 11.023 9.0815 10.933 9.819H9.1205Z"
        fill="currentColor" />
</svg>