<svg width="20" height="20" viewBox="0 0 20 20" fill="none" xmlns="http://www.w3.org/2000/svg">
<path fill-rule="evenodd" clip-rule="evenodd" d="M9.76842 6.11678C8.97578 6.11678 8.33322 5.49372 8.33322 4.72514C8.33322 3.95655 8.97578 3.3335 9.76842 3.3335C10.5611 3.3335 11.2036 3.95655 11.2036 4.72514C11.2036 5.49372 10.5611 6.11678 9.76842 6.11678ZM9.76842 11.4001C8.97578 11.4001 8.33322 10.777 8.33322 10.0084C8.33322 9.23986 8.97578 8.6168 9.76842 8.6168C10.5611 8.6168 11.2036 9.23986 11.2036 10.0084C11.2036 10.777 10.5611 11.4001 9.76842 11.4001ZM8.33322 15.2917C8.33322 16.0603 8.97578 16.6834 9.76842 16.6834C10.5611 16.6834 11.2036 16.0603 11.2036 15.2917C11.2036 14.5232 10.5611 13.9001 9.76842 13.9001C8.97578 13.9001 8.33322 14.5232 8.33322 15.2917Z" fill="#4C4C4C"/>
</svg>
