<svg width="24" height="24" viewBox="0 0 24 24" fill="none" xmlns="http://www.w3.org/2000/svg">
<rect width="24" height="24" fill="transparent"/>
<path fill-rule="evenodd" clip-rule="evenodd" d="M4.74673 7.64914H5.85066C6.276 7.64914 6.6208 7.99394 6.6208 8.41928C6.6208 8.84461 6.276 9.18941 5.85066 9.18941H2.77013C2.3448 9.18941 2 8.84461 2 8.41928V5.33875C2 4.91341 2.3448 4.56861 2.77013 4.56861C3.19547 4.56861 3.54027 4.91341 3.54027 5.33875V6.67017C5.85557 2.98864 10.3617 1.16904 14.6741 2.36557C19.52 3.71017 22.6132 8.44499 21.8975 13.4229C21.1817 18.4008 16.88 22.0724 11.8515 21.9972C6.82294 21.9221 2.63279 18.1236 2.06614 13.1265C2.01822 12.7039 2.32197 12.3225 2.7446 12.2745C3.16722 12.2266 3.54868 12.5304 3.5966 12.953C4.07596 17.1802 7.62061 20.3936 11.8745 20.4571C16.1283 20.5207 19.7674 17.4147 20.3729 13.2037C20.9783 8.99264 18.3617 4.98722 14.2622 3.84977C10.553 2.82059 6.67444 4.42916 4.74673 7.64914ZM10.426 7.4769C11.9624 6.34329 14.0562 6.33617 15.6002 7.45932C17.1443 8.58247 17.7822 10.5768 17.1768 12.3875C16.5715 14.1977 14.8632 15.407 12.9549 15.3764C12.66 15.3728 12.3667 15.3387 12.0796 15.2747L10.4487 16.909L10.4476 16.9101C10.1335 17.2265 9.70589 17.4042 9.26002 17.4037H8.29709C7.85248 17.4037 7.42611 17.227 7.11176 16.9127C6.79739 16.5983 6.6208 16.1719 6.6208 15.7273V14.7675L6.6208 14.7659C6.62167 14.3233 6.79696 13.8988 7.10868 13.5845L7.11035 13.5829L8.74969 11.9401C8.38093 10.2676 9.02347 8.5118 10.426 7.4769ZM14.6942 8.7049C13.6934 7.97694 12.3363 7.98155 11.3405 8.71629C10.3448 9.45104 9.94006 10.7464 10.3404 11.9174C10.3679 11.9976 10.3819 12.0818 10.3819 12.1665C10.3819 12.3705 10.3009 12.5662 10.1569 12.7106L8.20227 14.6692C8.17635 14.6956 8.16125 14.7315 8.16106 14.7685V15.7273C8.16106 15.7634 8.1754 15.798 8.2009 15.8235C8.22643 15.8491 8.26103 15.8634 8.29709 15.8634H9.26103C9.29578 15.8634 9.3301 15.8496 9.35455 15.8249L9.35649 15.8229L11.3087 13.8667C11.5179 13.6571 11.8288 13.586 12.1083 13.6838C12.3869 13.7813 12.6795 13.8328 12.9746 13.8362L12.9784 13.8363C14.2158 13.8567 15.3236 13.0727 15.716 11.8991C16.1084 10.7255 15.6949 9.43286 14.6942 8.7049ZM12.9663 10.2473C12.518 10.2473 12.1546 10.6108 12.1546 11.059C12.1546 11.5073 12.518 11.8708 12.9663 11.8708C13.4146 11.8708 13.778 11.5073 13.778 11.059C13.778 10.6108 13.4146 10.2473 12.9663 10.2473Z" fill="currentColor"/>
</svg>
