<svg width="24" height="24" viewBox="0 0 24 24" fill="none" xmlns="http://www.w3.org/2000/svg">
    <path fill="currentColor" fill-rule="evenodd" clip-rule="evenodd" d="M8.28032 7.21967C7.98743 6.92678 7.51256 6.92678 7.21966 7.21967C6.92677 7.51257 6.92677 7.98744 7.21966 8.28033L10.6893 11.75L7.21966 15.2197C6.92677 15.5126 6.92677 15.9874 7.21966 16.2803C7.51256 16.5732 7.98743 16.5732 8.28032 16.2803L11.75 12.8107L15.2197 16.2803C15.5126 16.5732 15.9874 16.5732 16.2803 16.2803C16.5732 15.9874 16.5732 15.5126 16.2803 15.2197L12.8107 11.75L16.2803 8.28033C16.5732 7.98744 16.5732 7.51257 16.2803 7.21967C15.9874 6.92678 15.5126 6.92678 15.2197 7.21967L11.75 10.6893L8.28032 7.21967Z"  />
</svg>
    