<svg width="20" height="20" viewBox="0 0 20 20" fill="none" xmlns="http://www.w3.org/2000/svg">
<path fill-rule="evenodd" clip-rule="evenodd" d="M19.664 17.8454L14.6973 12.8771C15.6602 11.5589 16.2684 9.88593 16.2684 8.11153C16.2684 3.65019 12.6194 0 8.15954 0C3.69967 0 0 3.65019 0 8.11153C0 12.5729 3.64899 16.2231 8.10886 16.2231C9.88268 16.2231 11.5551 15.6654 12.8728 14.6515L17.8395 19.6198C18.3463 20.1267 19.1572 20.1267 19.6133 19.6198C20.1201 19.1635 20.1201 18.3523 19.664 17.8454ZM1.52041 8.11153C1.52041 4.46134 4.45987 1.52091 8.10886 1.52091C11.7579 1.52091 14.6973 4.46134 14.6973 8.11153C14.6973 11.7617 11.7579 14.7022 8.10886 14.7022C4.45987 14.7022 1.52041 11.7617 1.52041 8.11153Z" fill="currentColor"/>
</svg>
