<svg width="24" height="24" viewBox="0 0 24 24" fill="none" xmlns="http://www.w3.org/2000/svg">
<path fill-rule="evenodd" clip-rule="evenodd" d="M2 12C2 6.47727 6.47727 2 12 2C17.5227 2 22 6.47727 22 12C22 17.5227 17.5227 22 12 22C6.47727 22 2 17.5227 2 12ZM3.36339 12C3.36339 16.7623 7.23748 20.6364 11.9998 20.6364C16.762 20.6364 20.6361 16.7623 20.6361 12C20.6361 7.23775 16.762 3.36366 11.9998 3.36366C7.23748 3.36366 3.36339 7.23775 3.36339 12Z" fill="#191919"/>
<path d="M16.0629 8.57812L10.7875 13.8536L7.93657 11.0027C7.6702 10.7363 7.23884 10.7363 6.97248 11.0027C6.70611 11.2686 6.70611 11.7008 6.97248 11.9668L10.7879 15.7822L17.0279 9.54266C17.2943 9.27675 17.2943 8.84493 17.0279 8.57857C16.7616 8.31221 16.3293 8.31175 16.0629 8.57812Z" fill="#191919"/>
</svg>
