<svg width="51" height="51" viewBox="0 0 51 51" fill="none" xmlns="http://www.w3.org/2000/svg">
    <g clip-path="url(#clip0_15692_88405)">
        <path d="M0 0H51V51H0V0Z" fill="transparent" />
        <path
            d="M33.5116 31.3277H40.7974V24.042H37.1609H33.5245V31.3277H33.5116ZM40.7974 7.28613V19.6731H38.6129V19.3133C38.6129 13.4796 35.3363 9.8432 29.1428 9.8432H28.783V36.0692C28.783 39.7056 30.235 41.1705 33.8843 41.1705H34.9765V43.7147H16.0362V41.1705H17.1284C20.7649 41.1705 22.2297 39.7185 22.2297 36.0692V9.83035H21.8699C15.6764 9.83035 12.3998 13.4668 12.3998 19.3005V19.6603H10.2154V7.28613H40.7974ZM17.4882 31.3277H10.2025V24.042H13.8389H17.4754V31.3277H17.4882Z"
            fill="currentColor" />
    </g>
    <defs>
        <clipPath id="clip0_15692_88405">
            <rect width="51" height="51" fill="currentColor" transform="matrix(-1 0 0 1 51 0)" />
        </clipPath>
    </defs>
</svg>