<svg width="24" height="24" viewBox="0 0 24 24" fill="none" xmlns="http://www.w3.org/2000/svg">
<path d="M13.2582 4.01446C13.0801 3.70602 12.824 3.4499 12.5155 3.27182C12.2071 3.09375 11.8572 3 11.5011 3C11.1449 3 10.7951 3.09375 10.4866 3.27182C10.1782 3.4499 9.92207 3.70602 9.74399 4.01446L2.27179 16.9566C2.09373 17.2651 1.99999 17.6149 2 17.9711C2.00001 18.3272 2.09376 18.6771 2.27183 18.9855C2.4499 19.294 2.70603 19.5501 3.01445 19.7282C3.32288 19.9062 3.67275 20 4.0289 20H18.9733C19.3294 20 19.6793 19.9062 19.9877 19.7282C20.2962 19.5501 20.5523 19.294 20.7303 18.9855C20.9084 18.6771 21.0022 18.3272 21.0022 17.9711C21.0022 17.6149 20.9084 17.2651 20.7304 16.9566L13.2582 4.01446ZM19.633 18.3521C19.5672 18.4688 19.4713 18.5657 19.3552 18.6327C19.2392 18.6997 19.1073 18.7343 18.9733 18.7329H4.0289C3.89516 18.7329 3.76379 18.6977 3.64797 18.6309C3.53215 18.564 3.43598 18.4678 3.36911 18.352C3.30225 18.2362 3.26705 18.1048 3.26706 17.9711C3.26707 17.8374 3.30228 17.706 3.36916 17.5902L10.8414 4.648C10.9082 4.53219 11.0044 4.43602 11.1202 4.36916C11.236 4.30229 11.3674 4.26709 11.5011 4.26709C11.6348 4.26709 11.7662 4.30229 11.882 4.36916C11.9978 4.43602 12.094 4.53219 12.1608 4.648L19.633 17.5902C19.7012 17.7056 19.7372 17.8371 19.7372 17.9711C19.7372 18.1052 19.7012 18.2367 19.633 18.3521H19.633Z" fill="#191919"/>
<path d="M11.5007 17.6336C11.9472 17.6336 12.3091 17.2716 12.3091 16.8252C12.3091 16.3788 11.9472 16.0168 11.5007 16.0168C11.0543 16.0168 10.6924 16.3788 10.6924 16.8252C10.6924 17.2716 11.0543 17.6336 11.5007 17.6336Z" fill="#191919"/>
<path d="M12.0557 8.21082H10.946C10.8612 8.21081 10.7772 8.22841 10.6995 8.26248C10.6218 8.29656 10.5519 8.34638 10.4944 8.4088C10.4369 8.47122 10.393 8.54488 10.3654 8.62513C10.3378 8.70539 10.3271 8.79049 10.3341 8.87507L10.8141 14.7186C10.8242 14.8413 10.88 14.9557 10.9706 15.0391C11.0611 15.1225 11.1797 15.1688 11.3027 15.1688H11.699C11.8221 15.1688 11.9406 15.1225 12.0312 15.0391C12.1217 14.9557 12.1775 14.8413 12.1876 14.7186L12.6676 8.87508C12.6746 8.79049 12.6639 8.70539 12.6363 8.62513C12.6087 8.54488 12.5648 8.47122 12.5073 8.4088C12.4498 8.34638 12.38 8.29656 12.3022 8.26248C12.2245 8.22841 12.1406 8.21081 12.0557 8.21082Z" fill="#191919"/>
</svg>
